<svg width="42" height="47" viewBox="0 0 42 47" fill="none" xmlns="http://www.w3.org/2000/svg">
<mask id="mask0_23_1231" style="mask-type:alpha" maskUnits="userSpaceOnUse" x="5" y="0" width="32" height="32">
<rect x="5" width="32" height="32" fill="#D9D9D9"/>
</mask>
<g mask="url(#mask0_23_1231)">
<path d="M19.6668 21.4815H22.3335V18.8149H25.0002V16.1482H22.3335V13.4815H19.6668V16.1482H17.0002V18.8149H19.6668V21.4815ZM10.3335 26.8149V24.1482H13.0002V14.8149C13.0002 12.9704 13.5557 11.3315 14.6668 9.89819C15.7779 8.46486 17.2224 7.52597 19.0002 7.08153V6.14819C19.0002 5.59264 19.1946 5.12042 19.5835 4.73153C19.9724 4.34264 20.4446 4.14819 21.0002 4.14819C21.5557 4.14819 22.0279 4.34264 22.4168 4.73153C22.8057 5.12042 23.0002 5.59264 23.0002 6.14819V7.08153C24.7779 7.52597 26.2224 8.46486 27.3335 9.89819C28.4446 11.3315 29.0002 12.9704 29.0002 14.8149V24.1482H31.6668V26.8149H10.3335ZM21.0002 30.8149C20.2668 30.8149 19.6391 30.5537 19.1168 30.0315C18.5946 29.5093 18.3335 28.8815 18.3335 28.1482H23.6668C23.6668 28.8815 23.4057 29.5093 22.8835 30.0315C22.3613 30.5537 21.7335 30.8149 21.0002 30.8149ZM15.6668 24.1482H26.3335V14.8149C26.3335 13.3482 25.8113 12.0926 24.7668 11.0482C23.7224 10.0037 22.4668 9.48153 21.0002 9.48153C19.5335 9.48153 18.2779 10.0037 17.2335 11.0482C16.1891 12.0926 15.6668 13.3482 15.6668 14.8149V24.1482Z" fill="#0F0E46"/>
</g>
<path d="M7.65838 45H5.83026L9.15874 35.5455H11.2731L14.6062 45H12.7781L10.2528 37.4844H10.179L7.65838 45ZM7.7184 41.293H12.7042V42.6687H7.7184V41.293ZM17.4488 35.5455V45H15.7776V35.5455H17.4488ZM22.3065 45.1385C21.5955 45.1385 20.9815 44.9908 20.4645 44.6953C19.9505 44.3968 19.555 43.9751 19.2781 43.4304C19.0011 42.8826 18.8626 42.2378 18.8626 41.4961C18.8626 40.7667 19.0011 40.1265 19.2781 39.5756C19.5581 39.0217 19.949 38.5908 20.4506 38.283C20.9523 37.9722 21.5417 37.8168 22.2188 37.8168C22.6558 37.8168 23.0682 37.8875 23.456 38.0291C23.8468 38.1676 24.1915 38.383 24.4901 38.6754C24.7917 38.9678 25.0286 39.3402 25.201 39.7926C25.3733 40.242 25.4595 40.7775 25.4595 41.3991V41.9116H19.6474V40.7852H23.8576C23.8545 40.4651 23.7853 40.1804 23.6499 39.9311C23.5144 39.6787 23.3252 39.4802 23.082 39.3356C22.842 39.1909 22.5619 39.1186 22.2418 39.1186C21.9002 39.1186 21.6001 39.2017 21.3416 39.3679C21.0831 39.531 20.8815 39.7464 20.7369 40.0142C20.5953 40.2789 20.523 40.5697 20.5199 40.8867V41.87C20.5199 42.2824 20.5953 42.6364 20.7461 42.9318C20.8969 43.2242 21.1077 43.4489 21.3786 43.6058C21.6494 43.7597 21.9664 43.8366 22.3295 43.8366C22.5727 43.8366 22.7927 43.8028 22.9897 43.7351C23.1867 43.6643 23.3575 43.5612 23.5021 43.4258C23.6468 43.2904 23.756 43.1226 23.8299 42.9226L25.3903 43.098C25.2918 43.5104 25.104 43.8705 24.8271 44.1783C24.5531 44.483 24.2023 44.7199 23.7745 44.8892C23.3467 45.0554 22.8574 45.1385 22.3065 45.1385ZM26.8733 45V37.9091H28.4937V39.0909H28.5676C28.6968 38.6816 28.9184 38.3661 29.2323 38.1445C29.5493 37.9199 29.911 37.8075 30.3172 37.8075C30.4095 37.8075 30.5126 37.8121 30.6265 37.8214C30.7435 37.8275 30.8404 37.8383 30.9173 37.8537V39.391C30.8466 39.3664 30.7342 39.3448 30.5803 39.3263C30.4295 39.3048 30.2834 39.294 30.1418 39.294C29.8371 39.294 29.5632 39.3602 29.32 39.4925C29.08 39.6218 28.8907 39.8018 28.7522 40.0327C28.6137 40.2635 28.5445 40.5297 28.5445 40.8313V45H26.8733ZM35.9493 37.9091V39.2017H31.873V37.9091H35.9493ZM32.8794 36.2102H34.5505V42.8672C34.5505 43.0919 34.5844 43.2642 34.6521 43.3842C34.7229 43.5012 34.8152 43.5812 34.9291 43.6243C35.0429 43.6674 35.1691 43.6889 35.3076 43.6889C35.4123 43.6889 35.5077 43.6812 35.5938 43.6658C35.6831 43.6504 35.7508 43.6366 35.797 43.6243L36.0786 44.9308C35.9893 44.9615 35.8616 44.9954 35.6954 45.0323C35.5323 45.0692 35.3322 45.0908 35.0953 45.0969C34.6767 45.1093 34.2997 45.0462 33.9642 44.9077C33.6288 44.7661 33.3625 44.5476 33.1656 44.2521C32.9717 43.9567 32.8763 43.5874 32.8794 43.1442V36.2102Z" fill="#0F0E46"/>
</svg>