<svg width="80" height="80" viewBox="0 0 80 80" fill="none" xmlns="http://www.w3.org/2000/svg">
<mask id="mask0_19_134" style="mask-type:alpha" maskUnits="userSpaceOnUse" x="0" y="0" width="80" height="80">
<rect width="79.5048" height="79.5048" fill="#D9D9D9"/>
</mask>
<g mask="url(#mask0_19_134)">
<mask id="mask1_19_134" style="mask-type:alpha" maskUnits="userSpaceOnUse" x="12" y="15" width="65" height="65">
<rect x="12" y="15" width="65" height="65" fill="#D9D9D9"/>
</mask>
<g mask="url(#mask1_19_134)">
<path d="M28.2514 66.4585C25.9944 66.4585 24.076 65.6686 22.4962 64.0887C20.9163 62.5089 20.1264 60.5905 20.1264 58.3335H14.7097V33.9585C14.7097 32.4689 15.2401 31.1937 16.3009 30.133C17.3616 29.0722 18.6368 28.5418 20.1264 28.5418H58.0431L74.2931 44.7918V58.3335H68.8764C68.8764 60.5905 68.0865 62.5089 66.5066 64.0887C64.9267 65.6686 63.0083 66.4585 60.7514 66.4585C58.4945 66.4585 56.576 65.6686 54.9962 64.0887C53.4163 62.5089 52.6264 60.5905 52.6264 58.3335H36.3764C36.3764 60.5905 35.5865 62.5089 34.0066 64.0887C32.4267 65.6686 30.5083 66.4585 28.2514 66.4585ZM52.6264 42.0835H63.4597L55.3347 33.9585H52.6264V42.0835ZM36.3764 42.0835H47.2097V33.9585H36.3764V42.0835ZM20.1264 42.0835H30.9597V33.9585H20.1264V42.0835ZM28.2514 61.7189C29.1993 61.7189 30.0005 61.3917 30.655 60.7372C31.3095 60.0826 31.6368 59.2814 31.6368 58.3335C31.6368 57.3856 31.3095 56.5844 30.655 55.9299C30.0005 55.2753 29.1993 54.9481 28.2514 54.9481C27.3035 54.9481 26.5023 55.2753 25.8477 55.9299C25.1932 56.5844 24.866 57.3856 24.866 58.3335C24.866 59.2814 25.1932 60.0826 25.8477 60.7372C26.5023 61.3917 27.3035 61.7189 28.2514 61.7189ZM60.7514 61.7189C61.6993 61.7189 62.5005 61.3917 63.155 60.7372C63.8096 60.0826 64.1368 59.2814 64.1368 58.3335C64.1368 57.3856 63.8096 56.5844 63.155 55.9299C62.5005 55.2753 61.6993 54.9481 60.7514 54.9481C59.8035 54.9481 59.0023 55.2753 58.3478 55.9299C57.6932 56.5844 57.366 57.3856 57.366 58.3335C57.366 59.2814 57.6932 60.0826 58.3478 60.7372C59.0023 61.3917 59.8035 61.7189 60.7514 61.7189ZM20.1264 52.9168H22.2931C23.0604 52.1043 23.9406 51.4498 24.9337 50.9533C25.9267 50.4568 27.0326 50.2085 28.2514 50.2085C29.4701 50.2085 30.576 50.4568 31.5691 50.9533C32.5622 51.4498 33.4424 52.1043 34.2097 52.9168H54.7931C55.5604 52.1043 56.4406 51.4498 57.4337 50.9533C58.4267 50.4568 59.5326 50.2085 60.7514 50.2085C61.9701 50.2085 63.0761 50.4568 64.0691 50.9533C65.0622 51.4498 65.9424 52.1043 66.7097 52.9168H68.8764V47.5002H20.1264V52.9168Z" fill="#0F0E46"/>
</g>
</g>
</svg>
