<svg width="42" height="43" viewBox="0 0 42 43" fill="none" xmlns="http://www.w3.org/2000/svg">
<mask id="mask0_23_1226" style="mask-type:alpha" maskUnits="userSpaceOnUse" x="7" y="0" width="28" height="28">
<rect x="7" y="0.259277" width="28" height="27.4815" fill="#D9D9D9"/>
</mask>
<g mask="url(#mask0_23_1226)">
<path d="M27.4165 22.426H28.5832V19.5094H31.4998V18.3427H28.5832V15.426H27.4165V18.3427H24.4998V19.5094H27.4165V22.426ZM27.9998 24.7594C26.3859 24.7594 25.0103 24.1906 23.8728 23.0531C22.7353 21.9156 22.1665 20.5399 22.1665 18.926C22.1665 17.3121 22.7353 15.9364 23.8728 14.7989C25.0103 13.6614 26.3859 13.0927 27.9998 13.0927C29.6137 13.0927 30.9894 13.6614 32.1269 14.7989C33.2644 15.9364 33.8332 17.3121 33.8332 18.926C33.8332 20.5399 33.2644 21.9156 32.1269 23.0531C30.9894 24.1906 29.6137 24.7594 27.9998 24.7594ZM11.6665 22.426V8.42602L20.9998 1.42603L30.3332 8.42602V11.1094C29.9637 10.9927 29.5846 10.9052 29.1957 10.8469C28.8068 10.7885 28.4082 10.7594 27.9998 10.7594V9.59269L20.9998 4.34269L13.9998 9.59269V20.0927H19.9207C19.979 20.501 20.0665 20.8996 20.1832 21.2885C20.2998 21.6774 20.4457 22.0566 20.6207 22.426H11.6665Z" fill="#0F0E46"/>
</g>
<path d="M3.4545 40.7407V31.2862H5.16721V35.2887H9.54825V31.2862H11.2656V40.7407H9.54825V36.7244H5.16721V40.7407H3.4545ZM16.1475 40.8792C15.455 40.8792 14.8549 40.7269 14.3471 40.4222C13.8393 40.1175 13.4453 39.6912 13.1653 39.1434C12.8883 38.5956 12.7498 37.9554 12.7498 37.223C12.7498 36.4905 12.8883 35.8488 13.1653 35.2979C13.4453 34.747 13.8393 34.3192 14.3471 34.0145C14.8549 33.7098 15.455 33.5575 16.1475 33.5575C16.84 33.5575 17.4401 33.7098 17.9479 34.0145C18.4557 34.3192 18.8481 34.747 19.1251 35.2979C19.4052 35.8488 19.5452 36.4905 19.5452 37.223C19.5452 37.9554 19.4052 38.5956 19.1251 39.1434C18.8481 39.6912 18.4557 40.1175 17.9479 40.4222C17.4401 40.7269 16.84 40.8792 16.1475 40.8792ZM16.1567 39.5404C16.5322 39.5404 16.8461 39.4373 17.0985 39.2311C17.3509 39.0219 17.5386 38.7418 17.6617 38.3909C17.7879 38.0401 17.851 37.6492 17.851 37.2184C17.851 36.7844 17.7879 36.392 17.6617 36.0411C17.5386 35.6872 17.3509 35.4056 17.0985 35.1963C16.8461 34.9871 16.5322 34.8824 16.1567 34.8824C15.772 34.8824 15.452 34.9871 15.1965 35.1963C14.9441 35.4056 14.7549 35.6872 14.6287 36.0411C14.5056 36.392 14.444 36.7844 14.444 37.2184C14.444 37.6492 14.5056 38.0401 14.6287 38.3909C14.7549 38.7418 14.9441 39.0219 15.1965 39.2311C15.452 39.4373 15.772 39.5404 16.1567 39.5404ZM20.9636 40.7407V33.6498H22.5609V34.8547H22.644C22.7918 34.4485 23.0364 34.1315 23.3781 33.9037C23.7197 33.6729 24.1275 33.5575 24.6014 33.5575C25.0815 33.5575 25.4863 33.6744 25.8156 33.9083C26.1479 34.1392 26.3819 34.4546 26.5173 34.8547H26.5911C26.7481 34.4608 27.0128 34.1469 27.3852 33.913C27.7606 33.676 28.2054 33.5575 28.7193 33.5575C29.3718 33.5575 29.9042 33.7637 30.3166 34.1761C30.729 34.5885 30.9352 35.1902 30.9352 35.9811V40.7407H29.2595V36.2397C29.2595 35.7996 29.1425 35.4779 28.9086 35.2748C28.6747 35.0686 28.3885 34.9655 28.0499 34.9655C27.6468 34.9655 27.3313 35.0917 27.1036 35.3441C26.8789 35.5934 26.7666 35.918 26.7666 36.3181V40.7407H25.1277V36.1704C25.1277 35.8042 25.0169 35.5118 24.7953 35.2933C24.5768 35.0748 24.2906 34.9655 23.9367 34.9655C23.6966 34.9655 23.4781 35.0271 23.2811 35.1502C23.0841 35.2702 22.9272 35.441 22.8102 35.6626C22.6933 35.8811 22.6348 36.1366 22.6348 36.4289V40.7407H20.9636ZM35.7698 40.8792C35.0589 40.8792 34.4449 40.7315 33.9279 40.436C33.4139 40.1375 33.0184 39.7159 32.7414 39.1711C32.4644 38.6233 32.3259 37.9785 32.3259 37.2368C32.3259 36.5074 32.4644 35.8673 32.7414 35.3164C33.0215 34.7624 33.4124 34.3315 33.914 34.0237C34.4157 33.7129 35.005 33.5575 35.6821 33.5575C36.1192 33.5575 36.5316 33.6283 36.9193 33.7698C37.3102 33.9083 37.6549 34.1238 37.9534 34.4161C38.255 34.7085 38.492 35.0809 38.6644 35.5333C38.8367 35.9827 38.9229 36.5182 38.9229 37.1399V37.6523H33.1108V36.5259H37.321C37.3179 36.2058 37.2487 35.9211 37.1132 35.6718C36.9778 35.4195 36.7885 35.221 36.5454 35.0763C36.3054 34.9317 36.0253 34.8593 35.7052 34.8593C35.3636 34.8593 35.0635 34.9424 34.805 35.1086C34.5465 35.2717 34.3449 35.4872 34.2002 35.7549C34.0587 36.0196 33.9863 36.3104 33.9833 36.6274V37.6108C33.9833 38.0232 34.0587 38.3771 34.2095 38.6725C34.3603 38.9649 34.5711 39.1896 34.8419 39.3465C35.1128 39.5004 35.4298 39.5774 35.7929 39.5774C36.0361 39.5774 36.2561 39.5435 36.4531 39.4758C36.6501 39.405 36.8209 39.3019 36.9655 39.1665C37.1102 39.0311 37.2194 38.8634 37.2933 38.6633L38.8536 38.8387C38.7552 39.2511 38.5674 39.6112 38.2904 39.919C38.0165 40.2237 37.6657 40.4607 37.2379 40.6299C36.8101 40.7961 36.3207 40.8792 35.7698 40.8792Z" fill="#0F0E46"/>
</svg>