<svg width="80" height="80" viewBox="0 0 80 80" fill="none" xmlns="http://www.w3.org/2000/svg">
<mask id="mask0_18_1407" style="mask-type:alpha" maskUnits="userSpaceOnUse" x="0" y="0" width="80" height="80">
<rect width="79.5048" height="79.5048" fill="#D9D9D9"/>
</mask>
<g mask="url(#mask0_18_1407)">
<path d="M23.189 53.0032H29.8144V46.3778H36.4398V39.7524H29.8144V33.127H23.189V39.7524H16.5636V46.3778H23.189V53.0032ZM43.0652 41.4087H62.9414V36.4397H43.0652V41.4087ZM43.0652 51.3468H56.316V46.3778H43.0652V51.3468ZM13.2509 66.254C11.4289 66.254 9.86917 65.6053 8.5717 64.3078C7.27423 63.0103 6.62549 61.4506 6.62549 59.6286V23.1889C6.62549 21.3669 7.27423 19.8072 8.5717 18.5097C9.86917 17.2122 11.4289 16.5635 13.2509 16.5635H29.8144V6.6254C29.8144 4.80341 30.4631 3.24369 31.7606 1.94621C33.0581 0.648737 34.6178 0 36.4398 0H43.0652C44.8872 0 46.4469 0.648737 47.7444 1.94621C49.0418 3.24369 49.6906 4.80341 49.6906 6.6254V16.5635H66.2541C68.0761 16.5635 69.6358 17.2122 70.9333 18.5097C72.2307 19.8072 72.8795 21.3669 72.8795 23.1889V59.6286C72.8795 61.4506 72.2307 63.0103 70.9333 64.3078C69.6358 65.6053 68.0761 66.254 66.2541 66.254H13.2509ZM13.2509 59.6286H66.2541V23.1889H49.6906C49.6906 25.0109 49.0418 26.5706 47.7444 27.8681C46.4469 29.1656 44.8872 29.8143 43.0652 29.8143H36.4398C34.6178 29.8143 33.0581 29.1656 31.7606 27.8681C30.4631 26.5706 29.8144 25.0109 29.8144 23.1889H13.2509V59.6286ZM36.4398 23.1889H43.0652V6.6254H36.4398V23.1889Z" fill="#0F0E46"/>
</g>
</svg>
