<svg width="80" height="80" viewBox="0 0 80 80" fill="none" xmlns="http://www.w3.org/2000/svg">
<mask id="mask0_19_128" style="mask-type:alpha" maskUnits="userSpaceOnUse" x="0" y="0" width="80" height="80">
<rect width="79.5048" height="79.5048" fill="#D9D9D9"/>
</mask>
<g mask="url(#mask0_19_128)">
<mask id="mask1_19_128" style="mask-type:alpha" maskUnits="userSpaceOnUse" x="10" y="10" width="60" height="60">
<rect x="10" y="10" width="60" height="60" fill="#D9D9D9"/>
</mask>
<g mask="url(#mask1_19_128)">
<path d="M30 66.25L25 62.5V52.5H22.5C21.125 52.5 19.9479 52.0104 18.9688 51.0312C17.9896 50.0521 17.5 48.875 17.5 47.5V28.75C16.7917 28.75 16.1979 28.5104 15.7188 28.0312C15.2396 27.5521 15 26.9583 15 26.25C15 25.5417 15.2396 24.9479 15.7188 24.4688C16.1979 23.9896 16.7917 23.75 17.5 23.75H25V20H23.75C23.0417 20 22.4479 19.7604 21.9688 19.2812C21.4896 18.8021 21.25 18.2083 21.25 17.5C21.25 16.7917 21.4896 16.1979 21.9688 15.7188C22.4479 15.2396 23.0417 15 23.75 15H31.25C31.9583 15 32.5521 15.2396 33.0312 15.7188C33.5104 16.1979 33.75 16.7917 33.75 17.5C33.75 18.2083 33.5104 18.8021 33.0312 19.2812C32.5521 19.7604 31.9583 20 31.25 20H30V23.75H37.5C38.2083 23.75 38.8021 23.9896 39.2813 24.4688C39.7604 24.9479 40 25.5417 40 26.25C40 26.9583 39.7604 27.5521 39.2813 28.0312C38.8021 28.5104 38.2083 28.75 37.5 28.75V47.5C37.5 48.875 37.0104 50.0521 36.0312 51.0312C35.0521 52.0104 33.875 52.5 32.5 52.5H30V66.25ZM52.5 65C49.75 65 47.3958 64.0208 45.4375 62.0625C43.4792 60.1042 42.5 57.75 42.5 55V35C42.5 32.25 43.4792 29.8958 45.4375 27.9375C47.3958 25.9792 49.75 25 52.5 25C55.25 25 57.6042 25.9792 59.5625 27.9375C61.5208 29.8958 62.5 32.25 62.5 35V55C62.5 57.75 61.5208 60.1042 59.5625 62.0625C57.6042 64.0208 55.25 65 52.5 65ZM22.5 47.5H32.5V43.75H28.125C27.625 43.75 27.1875 43.5625 26.8125 43.1875C26.4375 42.8125 26.25 42.375 26.25 41.875C26.25 41.375 26.4375 40.9375 26.8125 40.5625C27.1875 40.1875 27.625 40 28.125 40H32.5V36.25H28.125C27.625 36.25 27.1875 36.0625 26.8125 35.6875C26.4375 35.3125 26.25 34.875 26.25 34.375C26.25 33.875 26.4375 33.4375 26.8125 33.0625C27.1875 32.6875 27.625 32.5 28.125 32.5H32.5V28.75H22.5V47.5ZM52.5 30C51.125 30 49.9479 30.4896 48.9688 31.4688C47.9896 32.4479 47.5 33.625 47.5 35H57.5C57.5 33.625 57.0104 32.4479 56.0312 31.4688C55.0521 30.4896 53.875 30 52.5 30ZM47.5 50H57.5V40H47.5V50ZM52.5 60C53.875 60 55.0521 59.5104 56.0312 58.5312C57.0104 57.5521 57.5 56.375 57.5 55H47.5C47.5 56.375 47.9896 57.5521 48.9688 58.5312C49.9479 59.5104 51.125 60 52.5 60Z" fill="#0F0E46"/>
</g>
</g>
</svg>
