<svg width="41" height="41" viewBox="0 0 41 41" fill="none" xmlns="http://www.w3.org/2000/svg">
<path d="M24.8646 31.7188C25.2563 31.7188 25.599 31.5719 25.8927 31.2781C26.1865 30.9844 26.3333 30.6417 26.3333 30.25C26.3333 29.8583 26.1865 29.5156 25.8927 29.2219C25.599 28.9281 25.2563 28.7812 24.8646 28.7812C24.4729 28.7812 24.1302 28.9281 23.8365 29.2219C23.5427 29.5156 23.3958 29.8583 23.3958 30.25C23.3958 30.6417 23.5427 30.9844 23.8365 31.2781C24.1302 31.5719 24.4729 31.7188 24.8646 31.7188ZM30.25 31.7188C30.6417 31.7188 30.9844 31.5719 31.2781 31.2781C31.5719 30.9844 31.7188 30.6417 31.7188 30.25C31.7188 29.8583 31.5719 29.5156 31.2781 29.2219C30.9844 28.9281 30.6417 28.7812 30.25 28.7812C29.8583 28.7812 29.5156 28.9281 29.2219 29.2219C28.9281 29.5156 28.7812 29.8583 28.7812 30.25C28.7812 30.6417 28.9281 30.9844 29.2219 31.2781C29.5156 31.5719 29.8583 31.7188 30.25 31.7188ZM35.6354 31.7188C36.0271 31.7188 36.3698 31.5719 36.6635 31.2781C36.9573 30.9844 37.1042 30.6417 37.1042 30.25C37.1042 29.8583 36.9573 29.5156 36.6635 29.2219C36.3698 28.9281 36.0271 28.7812 35.6354 28.7812C35.2438 28.7812 34.901 28.9281 34.6073 29.2219C34.3135 29.5156 34.1667 29.8583 34.1667 30.25C34.1667 30.6417 34.3135 30.9844 34.6073 31.2781C34.901 31.5719 35.2438 31.7188 35.6354 31.7188ZM4.79167 36.125C3.71458 36.125 2.79253 35.7415 2.02552 34.9745C1.25851 34.2075 0.875 33.2854 0.875 32.2083V4.79167C0.875 3.71458 1.25851 2.79253 2.02552 2.02552C2.79253 1.25851 3.71458 0.875 4.79167 0.875H32.2083C33.2854 0.875 34.2075 1.25851 34.9745 2.02552C35.7415 2.79253 36.125 3.71458 36.125 4.79167V17.9125C35.5049 17.6187 34.8684 17.3658 34.2156 17.1536C33.5628 16.9415 32.8937 16.7865 32.2083 16.6885V4.79167H4.79167V32.2083H16.6396C16.7375 32.9264 16.8925 33.6118 17.1047 34.2646C17.3168 34.9174 17.5698 35.5375 17.8635 36.125H4.79167ZM4.79167 32.2083V4.79167V16.6885V16.5417V32.2083ZM8.70833 28.2917H16.6885C16.7865 27.6063 16.9415 26.9372 17.1536 26.2844C17.3658 25.6316 17.6024 24.9951 17.8635 24.375H8.70833V28.2917ZM8.70833 20.4583H20.6542C21.6986 19.4792 22.8655 18.6632 24.1547 18.0104C25.4439 17.3576 26.8229 16.917 28.2917 16.6885V16.5417H8.70833V20.4583ZM8.70833 12.625H28.2917V8.70833H8.70833V12.625ZM30.25 40.0417C27.541 40.0417 25.2318 39.087 23.3224 37.1776C21.413 35.2682 20.4583 32.959 20.4583 30.25C20.4583 27.541 21.413 25.2318 23.3224 23.3224C25.2318 21.413 27.541 20.4583 30.25 20.4583C32.959 20.4583 35.2682 21.413 37.1776 23.3224C39.087 25.2318 40.0417 27.541 40.0417 30.25C40.0417 32.959 39.087 35.2682 37.1776 37.1776C35.2682 39.087 32.959 40.0417 30.25 40.0417Z" fill="#4E4E4E"/>
</svg>
