<svg width="47" height="47" viewBox="0 0 47 47" fill="none" xmlns="http://www.w3.org/2000/svg">
<mask id="mask0_256_385" style="mask-type:alpha" maskUnits="userSpaceOnUse" x="0" y="0" width="47" height="47">
<rect width="47" height="47" fill="#D9D9D9"/>
</mask>
<g mask="url(#mask0_256_385)">
<path d="M23.5 33.2917C24.0549 33.2917 24.52 33.104 24.8953 32.7286C25.2707 32.3533 25.4583 31.8882 25.4583 31.3333C25.4583 30.7785 25.2707 30.3134 24.8953 29.938C24.52 29.5627 24.0549 29.375 23.5 29.375C22.9451 29.375 22.48 29.5627 22.1047 29.938C21.7293 30.3134 21.5417 30.7785 21.5417 31.3333C21.5417 31.8882 21.7293 32.3533 22.1047 32.7286C22.48 33.104 22.9451 33.2917 23.5 33.2917ZM21.5417 25.4583H25.4583V13.7083H21.5417V25.4583ZM16.1562 41.125L5.875 30.8438V16.1562L16.1562 5.875H30.8438L41.125 16.1562V30.8438L30.8438 41.125H16.1562ZM17.8208 37.2083H29.1792L37.2083 29.1792V17.8208L29.1792 9.79167H17.8208L9.79167 17.8208V29.1792L17.8208 37.2083Z" fill="#4E4E4E"/>
</g>
</svg>
