<svg width="48" height="48" viewBox="0 0 48 48" fill="none" xmlns="http://www.w3.org/2000/svg">
<mask id="mask0_256_379" style="mask-type:alpha" maskUnits="userSpaceOnUse" x="0" y="0" width="48" height="48">
<rect width="48" height="48" fill="#D9D9D9"/>
</mask>
<g mask="url(#mask0_256_379)">
<path d="M10 35.7C11.8 33.9333 13.8917 32.5417 16.275 31.525C18.6583 30.5083 21.2333 30 24 30C26.7667 30 29.3417 30.5083 31.725 31.525C34.1083 32.5417 36.2 33.9333 38 35.7V10H10V35.7ZM24 26C25.9333 26 27.5833 25.3167 28.95 23.95C30.3167 22.5833 31 20.9333 31 19C31 17.0667 30.3167 15.4167 28.95 14.05C27.5833 12.6833 25.9333 12 24 12C22.0667 12 20.4167 12.6833 19.05 14.05C17.6833 15.4167 17 17.0667 17 19C17 20.9333 17.6833 22.5833 19.05 23.95C20.4167 25.3167 22.0667 26 24 26ZM10 42C8.9 42 7.95833 41.6083 7.175 40.825C6.39167 40.0417 6 39.1 6 38V10C6 8.9 6.39167 7.95833 7.175 7.175C7.95833 6.39167 8.9 6 10 6H38C39.1 6 40.0417 6.39167 40.825 7.175C41.6083 7.95833 42 8.9 42 10V38C42 39.1 41.6083 40.0417 40.825 40.825C40.0417 41.6083 39.1 42 38 42H10ZM13.45 38H34.55C33.0833 36.7 31.425 35.7083 29.575 35.025C27.725 34.3417 25.8667 34 24 34C22.1333 34 20.2583 34.3417 18.375 35.025C16.4917 35.7083 14.85 36.7 13.45 38ZM24 22C23.1667 22 22.4583 21.7083 21.875 21.125C21.2917 20.5417 21 19.8333 21 19C21 18.1667 21.2917 17.4583 21.875 16.875C22.4583 16.2917 23.1667 16 24 16C24.8333 16 25.5417 16.2917 26.125 16.875C26.7083 17.4583 27 18.1667 27 19C27 19.8333 26.7083 20.5417 26.125 21.125C25.5417 21.7083 24.8333 22 24 22Z" fill="#4E4E4E"/>
</g>
</svg>
