<svg width="42" height="43" viewBox="0 0 42 43" fill="none" xmlns="http://www.w3.org/2000/svg">
<mask id="mask0_23_1242" style="mask-type:alpha" maskUnits="userSpaceOnUse" x="7" y="0" width="28" height="28">
<rect x="7" width="28" height="28" fill="#D9D9D9"/>
</mask>
<g mask="url(#mask0_23_1242)">
<path d="M12.3959 25.6667C12.0653 25.6667 11.7785 25.5452 11.5355 25.3021C11.2924 25.0591 11.1709 24.7723 11.1709 24.4417V21.3792C11.1709 19.6292 11.7153 18.0834 12.8042 16.7417C13.8931 15.4 15.2931 14.5445 17.0042 14.175C16.2265 14.7195 15.6237 15.4049 15.1959 16.2313C14.7681 17.0577 14.5542 17.9473 14.5542 18.9V24.4417C14.5542 24.6556 14.5834 24.8695 14.6417 25.0834C14.7001 25.2973 14.7973 25.4917 14.9334 25.6667H12.3959ZM16.6834 25.6667C16.3528 25.6667 16.066 25.5452 15.823 25.3021C15.5799 25.0591 15.4584 24.7723 15.4584 24.4417V18.9C15.4584 17.5389 15.9396 16.382 16.9021 15.4292C17.8646 14.4764 19.0265 14 20.3876 14H25.9001C27.2612 14 28.4181 14.4764 29.3709 15.4292C30.3237 16.382 30.8001 17.5389 30.8001 18.9V20.7667C30.8001 22.1278 30.3237 23.2848 29.3709 24.2375C28.4181 25.1903 27.2612 25.6667 25.9001 25.6667H16.6834ZM21.0001 11.55C19.7167 11.55 18.6278 11.1028 17.7334 10.2084C16.839 9.31393 16.3917 8.22504 16.3917 6.94171C16.3917 5.65837 16.839 4.56949 17.7334 3.67504C18.6278 2.7806 19.7167 2.33337 21.0001 2.33337C22.2834 2.33337 23.3723 2.7806 24.2667 3.67504C25.1612 4.56949 25.6084 5.65837 25.6084 6.94171C25.6084 8.22504 25.1612 9.31393 24.2667 10.2084C23.3723 11.1028 22.2834 11.55 21.0001 11.55Z" fill="#0F0E46"/>
</g>
<path d="M1.67081 41V31.5455H5.21626C5.94259 31.5455 6.55197 31.6809 7.04439 31.9517C7.53989 32.2225 7.91383 32.5949 8.16619 33.0689C8.42164 33.5398 8.54936 34.0753 8.54936 34.6754C8.54936 35.2817 8.42164 35.8203 8.16619 36.2912C7.91075 36.7621 7.53374 37.1329 7.03516 37.4038C6.53658 37.6715 5.92259 37.8054 5.19318 37.8054H2.8434V36.3974H4.96236C5.38707 36.3974 5.73485 36.3235 6.00568 36.1758C6.27652 36.0281 6.47656 35.8249 6.60582 35.5664C6.73816 35.3079 6.80433 35.0109 6.80433 34.6754C6.80433 34.34 6.73816 34.0445 6.60582 33.7891C6.47656 33.5336 6.27498 33.3351 6.00107 33.1935C5.73023 33.0489 5.38092 32.9766 4.95312 32.9766H3.38352V41H1.67081ZM9.96316 41V33.9091H11.5835V35.0909H11.6574C11.7867 34.6816 12.0083 34.3661 12.3222 34.1445C12.6392 33.9199 13.0008 33.8075 13.407 33.8075C13.4994 33.8075 13.6025 33.8121 13.7164 33.8214C13.8333 33.8275 13.9302 33.8383 14.0072 33.8537V35.391C13.9364 35.3664 13.8241 35.3448 13.6702 35.3263C13.5194 35.3048 13.3732 35.294 13.2316 35.294C12.9269 35.294 12.653 35.3602 12.4099 35.4925C12.1698 35.6218 11.9806 35.8018 11.8421 36.0327C11.7036 36.2635 11.6343 36.5297 11.6343 36.8313V41H9.96316ZM17.9185 41.1385C17.226 41.1385 16.6259 40.9862 16.1181 40.6815C15.6103 40.3768 15.2163 39.9505 14.9363 39.4027C14.6593 38.8549 14.5208 38.2147 14.5208 37.4822C14.5208 36.7498 14.6593 36.1081 14.9363 35.5572C15.2163 35.0063 15.6103 34.5785 16.1181 34.2738C16.6259 33.9691 17.226 33.8168 17.9185 33.8168C18.611 33.8168 19.2111 33.9691 19.7189 34.2738C20.2267 34.5785 20.6191 35.0063 20.8961 35.5572C21.1762 36.1081 21.3162 36.7498 21.3162 37.4822C21.3162 38.2147 21.1762 38.8549 20.8961 39.4027C20.6191 39.9505 20.2267 40.3768 19.7189 40.6815C19.2111 40.9862 18.611 41.1385 17.9185 41.1385ZM17.9277 39.7997C18.3032 39.7997 18.6171 39.6966 18.8695 39.4904C19.1219 39.2811 19.3096 39.0011 19.4327 38.6502C19.5589 38.2994 19.622 37.9085 19.622 37.4776C19.622 37.0437 19.5589 36.6513 19.4327 36.3004C19.3096 35.9465 19.1219 35.6649 18.8695 35.4556C18.6171 35.2463 18.3032 35.1417 17.9277 35.1417C17.543 35.1417 17.223 35.2463 16.9675 35.4556C16.7151 35.6649 16.5259 35.9465 16.3997 36.3004C16.2766 36.6513 16.215 37.0437 16.215 37.4776C16.215 37.9085 16.2766 38.2994 16.3997 38.6502C16.5259 39.0011 16.7151 39.2811 16.9675 39.4904C17.223 39.6966 17.543 39.7997 17.9277 39.7997ZM26.3263 33.9091V35.2017H22.1345V33.9091H26.3263ZM23.1824 41V33.2397C23.1824 32.7627 23.2809 32.3656 23.4779 32.0487C23.6779 31.7317 23.9457 31.4947 24.2812 31.3377C24.6166 31.1808 24.989 31.1023 25.3983 31.1023C25.6876 31.1023 25.9446 31.1254 26.1693 31.1715C26.394 31.2177 26.5602 31.2592 26.6679 31.2962L26.3355 32.5888C26.2647 32.5672 26.1755 32.5457 26.0677 32.5241C25.96 32.4995 25.84 32.4872 25.7077 32.4872C25.3968 32.4872 25.1768 32.5626 25.0475 32.7134C24.9213 32.8612 24.8582 33.0735 24.8582 33.3505V41H23.1824ZM27.635 41V33.9091H29.3062V41H27.635ZM28.4752 32.9027C28.2106 32.9027 27.9828 32.815 27.792 32.6396C27.6012 32.4611 27.5058 32.2472 27.5058 31.9979C27.5058 31.7455 27.6012 31.5316 27.792 31.3562C27.9828 31.1777 28.2106 31.0884 28.4752 31.0884C28.743 31.0884 28.9707 31.1777 29.1585 31.3562C29.3493 31.5316 29.4447 31.7455 29.4447 31.9979C29.4447 32.2472 29.3493 32.4611 29.1585 32.6396C28.9707 32.815 28.743 32.9027 28.4752 32.9027ZM32.6958 31.5455V41H31.0247V31.5455H32.6958ZM37.5535 41.1385C36.8426 41.1385 36.2286 40.9908 35.7116 40.6953C35.1976 40.3968 34.8021 39.9751 34.5251 39.4304C34.2481 38.8826 34.1096 38.2378 34.1096 37.4961C34.1096 36.7667 34.2481 36.1265 34.5251 35.5756C34.8052 35.0217 35.1961 34.5908 35.6977 34.283C36.1994 33.9722 36.7887 33.8168 37.4658 33.8168C37.9028 33.8168 38.3153 33.8875 38.703 34.0291C39.0939 34.1676 39.4386 34.383 39.7371 34.6754C40.0387 34.9678 40.2757 35.3402 40.4481 35.7926C40.6204 36.242 40.7066 36.7775 40.7066 37.3991V37.9116H34.8944V36.7852H39.1047C39.1016 36.4651 39.0323 36.1804 38.8969 35.9311C38.7615 35.6787 38.5722 35.4802 38.3291 35.3356C38.089 35.1909 37.809 35.1186 37.4889 35.1186C37.1473 35.1186 36.8472 35.2017 36.5887 35.3679C36.3302 35.531 36.1286 35.7464 35.9839 36.0142C35.8424 36.2789 35.77 36.5697 35.767 36.8867V37.87C35.767 38.2824 35.8424 38.6364 35.9932 38.9318C36.144 39.2242 36.3548 39.4489 36.6256 39.6058C36.8965 39.7597 37.2135 39.8366 37.5766 39.8366C37.8198 39.8366 38.0398 39.8028 38.2368 39.7351C38.4337 39.6643 38.6046 39.5612 38.7492 39.4258C38.8939 39.2904 39.0031 39.1226 39.077 38.9226L40.6373 39.098C40.5389 39.5104 40.3511 39.8705 40.0741 40.1783C39.8002 40.483 39.4494 40.7199 39.0216 40.8892C38.5938 41.0554 38.1044 41.1385 37.5535 41.1385Z" fill="#0F0E46"/>
</svg>