<svg width="42" height="42" viewBox="0 0 42 42" fill="none" xmlns="http://www.w3.org/2000/svg">
<mask id="mask0_23_1237" style="mask-type:alpha" maskUnits="userSpaceOnUse" x="8" y="0" width="26" height="26">
<rect x="8" width="26" height="26" fill="#D9D9D9"/>
</mask>
<g mask="url(#mask0_23_1237)">
<path d="M21 18.4166C21.3069 18.4166 21.5642 18.3128 21.7718 18.1052C21.9795 17.8975 22.0833 17.6402 22.0833 17.3333C22.0833 17.0264 21.9795 16.7691 21.7718 16.5614C21.5642 16.3538 21.3069 16.25 21 16.25C20.693 16.25 20.4357 16.3538 20.2281 16.5614C20.0205 16.7691 19.9166 17.0264 19.9166 17.3333C19.9166 17.6402 20.0205 17.8975 20.2281 18.1052C20.4357 18.3128 20.693 18.4166 21 18.4166ZM19.9166 14.0833H22.0833V7.5833H19.9166V14.0833ZM21 25.2416L17.3708 21.6666H12.3333V16.6291L8.7583 13L12.3333 9.3708V4.3333H17.3708L21 0.758301L24.6291 4.3333H29.6666V9.3708L33.2416 13L29.6666 16.6291V21.6666H24.6291L21 25.2416ZM21 22.2083L23.7083 19.5H27.5V15.7083L30.2083 13L27.5 10.2916V6.49997H23.7083L21 3.79163L18.2916 6.49997H14.5V10.2916L11.7916 13L14.5 15.7083V19.5H18.2916L21 22.2083Z" fill="#0F0E46"/>
</g>
<path d="M0.648837 39V29.5455H4.19429C4.92062 29.5455 5.52999 29.6716 6.02242 29.924C6.51792 30.1764 6.89185 30.5303 7.14422 30.9858C7.39967 31.4382 7.52739 31.966 7.52739 32.5692C7.52739 33.1755 7.39813 33.7018 7.1396 34.1481C6.88416 34.5913 6.50715 34.9344 6.00857 35.1776C5.50999 35.4176 4.89754 35.5376 4.17121 35.5376H1.646V34.1158H3.94039C4.3651 34.1158 4.71288 34.0573 4.98371 33.9403C5.25454 33.8203 5.45459 33.6464 5.58385 33.4187C5.71619 33.1879 5.78236 32.9047 5.78236 32.5692C5.78236 32.2338 5.71619 31.9476 5.58385 31.7106C5.45151 31.4705 5.24993 31.2889 4.97909 31.1658C4.70826 31.0397 4.35895 30.9766 3.93115 30.9766H2.36155V39H0.648837ZM5.53307 34.7159L7.87362 39H5.9624L3.6634 34.7159H5.53307ZM12.0677 39.1385C11.3568 39.1385 10.7428 38.9908 10.2257 38.6953C9.71175 38.3968 9.31627 37.9751 9.03928 37.4304C8.7623 36.8826 8.6238 36.2378 8.6238 35.4961C8.6238 34.7667 8.7623 34.1265 9.03928 33.5756C9.31935 33.0217 9.71021 32.5908 10.2119 32.283C10.7135 31.9722 11.3029 31.8168 11.98 31.8168C12.417 31.8168 12.8294 31.8875 13.2172 32.0291C13.6081 32.1676 13.9528 32.383 14.2513 32.6754C14.5529 32.9678 14.7899 33.3402 14.9622 33.7926C15.1346 34.242 15.2207 34.7775 15.2207 35.3991V35.9116H9.4086V34.7852H13.6188C13.6158 34.4651 13.5465 34.1804 13.4111 33.9311C13.2757 33.6787 13.0864 33.4802 12.8433 33.3356C12.6032 33.1909 12.3231 33.1186 12.0031 33.1186C11.6614 33.1186 11.3614 33.2017 11.1028 33.3679C10.8443 33.531 10.6427 33.7464 10.4981 34.0142C10.3565 34.2789 10.2842 34.5697 10.2811 34.8867V35.87C10.2811 36.2824 10.3565 36.6364 10.5073 36.9318C10.6581 37.2242 10.8689 37.4489 11.1398 37.6058C11.4106 37.7597 11.7276 37.8366 12.0908 37.8366C12.3339 37.8366 12.554 37.8028 12.7509 37.7351C12.9479 37.6643 13.1187 37.5612 13.2634 37.4258C13.408 37.2904 13.5173 37.1226 13.5911 36.9226L15.1515 37.098C15.053 37.5104 14.8653 37.8705 14.5883 38.1783C14.3144 38.483 13.9635 38.7199 13.5357 38.8892C13.1079 39.0554 12.6186 39.1385 12.0677 39.1385ZM16.6345 41.6591V31.9091H18.278V33.0817H18.375C18.4611 32.9093 18.5827 32.7262 18.7397 32.5323C18.8966 32.3353 19.109 32.1676 19.3767 32.0291C19.6445 31.8875 19.9861 31.8168 20.4016 31.8168C20.9494 31.8168 21.4434 31.9568 21.8835 32.2369C22.3267 32.5138 22.6775 32.9247 22.936 33.4695C23.1976 34.0111 23.3284 34.6759 23.3284 35.4638C23.3284 36.2424 23.2007 36.9041 22.9453 37.4489C22.6898 37.9936 22.342 38.4091 21.9019 38.6953C21.4618 38.9815 20.9633 39.1246 20.4062 39.1246C20 39.1246 19.663 39.0569 19.3952 38.9215C19.1274 38.7861 18.912 38.623 18.7489 38.4322C18.5889 38.2383 18.4642 38.0552 18.375 37.8828H18.3057V41.6591H16.6345ZM18.2734 35.4545C18.2734 35.9131 18.338 36.3147 18.4673 36.6594C18.5996 37.0041 18.7889 37.2734 19.0351 37.4673C19.2844 37.6581 19.586 37.7536 19.9399 37.7536C20.3093 37.7536 20.6186 37.6551 20.8679 37.4581C21.1171 37.258 21.3049 36.9857 21.4311 36.641C21.5603 36.2932 21.625 35.8977 21.625 35.4545C21.625 35.0144 21.5619 34.6236 21.4357 34.282C21.3095 33.9403 21.1218 33.6726 20.8725 33.4787C20.6232 33.2848 20.3123 33.1879 19.9399 33.1879C19.5829 33.1879 19.2798 33.2817 19.0305 33.4695C18.7812 33.6572 18.5919 33.9203 18.4627 34.2589C18.3365 34.5974 18.2734 34.996 18.2734 35.4545ZM27.8526 39.1385C27.1601 39.1385 26.56 38.9862 26.0522 38.6815C25.5443 38.3768 25.1504 37.9505 24.8703 37.4027C24.5934 36.8549 24.4549 36.2147 24.4549 35.4822C24.4549 34.7498 24.5934 34.1081 24.8703 33.5572C25.1504 33.0063 25.5443 32.5785 26.0522 32.2738C26.56 31.9691 27.1601 31.8168 27.8526 31.8168C28.5451 31.8168 29.1452 31.9691 29.653 32.2738C30.1608 32.5785 30.5532 33.0063 30.8302 33.5572C31.1103 34.1081 31.2503 34.7498 31.2503 35.4822C31.2503 36.2147 31.1103 36.8549 30.8302 37.4027C30.5532 37.9505 30.1608 38.3768 29.653 38.6815C29.1452 38.9862 28.5451 39.1385 27.8526 39.1385ZM27.8618 37.7997C28.2373 37.7997 28.5512 37.6966 28.8036 37.4904C29.0559 37.2811 29.2437 37.0011 29.3668 36.6502C29.493 36.2994 29.5561 35.9085 29.5561 35.4776C29.5561 35.0437 29.493 34.6513 29.3668 34.3004C29.2437 33.9465 29.0559 33.6649 28.8036 33.4556C28.5512 33.2463 28.2373 33.1417 27.8618 33.1417C27.4771 33.1417 27.157 33.2463 26.9016 33.4556C26.6492 33.6649 26.4599 33.9465 26.3338 34.3004C26.2107 34.6513 26.1491 35.0437 26.1491 35.4776C26.1491 35.9085 26.2107 36.2994 26.3338 36.6502C26.4599 37.0011 26.6492 37.2811 26.9016 37.4904C27.157 37.6966 27.4771 37.7997 27.8618 37.7997ZM32.6687 39V31.9091H34.2891V33.0909H34.363C34.4922 32.6816 34.7138 32.3661 35.0277 32.1445C35.3447 31.9199 35.7064 31.8075 36.1126 31.8075C36.2049 31.8075 36.308 31.8121 36.4219 31.8214C36.5389 31.8275 36.6358 31.8383 36.7128 31.8537V33.391C36.642 33.3664 36.5296 33.3448 36.3758 33.3263C36.2249 33.3048 36.0788 33.294 35.9372 33.294C35.6325 33.294 35.3586 33.3602 35.1155 33.4925C34.8754 33.6218 34.6861 33.8018 34.5476 34.0327C34.4091 34.2635 34.3399 34.5297 34.3399 34.8313V39H32.6687ZM41.7447 31.9091V33.2017H37.6684V31.9091H41.7447ZM38.6748 30.2102H40.3459V36.8672C40.3459 37.0919 40.3798 37.2642 40.4475 37.3842C40.5183 37.5012 40.6106 37.5812 40.7245 37.6243C40.8383 37.6674 40.9645 37.6889 41.103 37.6889C41.2077 37.6889 41.3031 37.6812 41.3892 37.6658C41.4785 37.6504 41.5462 37.6366 41.5924 37.6243L41.874 38.9308C41.7847 38.9615 41.657 38.9954 41.4908 39.0323C41.3277 39.0692 41.1276 39.0908 40.8907 39.0969C40.4721 39.1093 40.0951 39.0462 39.7596 38.9077C39.4242 38.7661 39.158 38.5476 38.961 38.2521C38.7671 37.9567 38.6717 37.5874 38.6748 37.1442V30.2102Z" fill="#0F0E46"/>
</svg>