<svg width="40" height="40" viewBox="0 0 40 40" fill="none" xmlns="http://www.w3.org/2000/svg">
<mask id="mask0_256_373" style="mask-type:alpha" maskUnits="userSpaceOnUse" x="0" y="0" width="40" height="40">
<rect width="40" height="40" fill="#D9D9D9"/>
</mask>
<g mask="url(#mask0_256_373)">
<path d="M3.33317 36.6667C2.86095 36.6667 2.46512 36.5069 2.14567 36.1875C1.82623 35.8681 1.6665 35.4722 1.6665 35V21.6667L5.20817 13.2083C5.40262 12.7361 5.70817 12.3611 6.12484 12.0833C6.5415 11.8056 6.99984 11.6667 7.49984 11.6667H22.4998C22.9998 11.6667 23.4582 11.8056 23.8748 12.0833C24.2915 12.3611 24.5971 12.7361 24.7915 13.2083L28.3332 21.6667V35C28.3332 35.4722 28.1735 35.8681 27.854 36.1875C27.5346 36.5069 27.1387 36.6667 26.6665 36.6667H24.9998C24.5276 36.6667 24.1318 36.5069 23.8123 36.1875C23.4929 35.8681 23.3332 35.4722 23.3332 35V33.3333H6.6665V35C6.6665 35.4722 6.50678 35.8681 6.18734 36.1875C5.86789 36.5069 5.47206 36.6667 4.99984 36.6667H3.33317ZM6.33317 18.3333H23.6248L22.2498 15H7.74984L6.33317 18.3333ZM4.99984 30H24.9998V21.6667H4.99984V30ZM9.1665 28.3333C9.86095 28.3333 10.4512 28.0903 10.9373 27.6042C11.4234 27.1181 11.6665 26.5278 11.6665 25.8333C11.6665 25.1389 11.4234 24.5486 10.9373 24.0625C10.4512 23.5764 9.86095 23.3333 9.1665 23.3333C8.47206 23.3333 7.88178 23.5764 7.39567 24.0625C6.90956 24.5486 6.6665 25.1389 6.6665 25.8333C6.6665 26.5278 6.90956 27.1181 7.39567 27.6042C7.88178 28.0903 8.47206 28.3333 9.1665 28.3333ZM20.8332 28.3333C21.5276 28.3333 22.1179 28.0903 22.604 27.6042C23.0901 27.1181 23.3332 26.5278 23.3332 25.8333C23.3332 25.1389 23.0901 24.5486 22.604 24.0625C22.1179 23.5764 21.5276 23.3333 20.8332 23.3333C20.1387 23.3333 19.5484 23.5764 19.0623 24.0625C18.5762 24.5486 18.3332 25.1389 18.3332 25.8333C18.3332 26.5278 18.5762 27.1181 19.0623 27.6042C19.5484 28.0903 20.1387 28.3333 20.8332 28.3333ZM29.9998 31.6667V17.3333L26.9582 10H9.45817L10.2082 8.20833C10.4026 7.73611 10.7082 7.36111 11.1248 7.08333C11.5415 6.80555 11.9998 6.66666 12.4998 6.66666H27.4998C27.9998 6.66666 28.4582 6.80555 28.8748 7.08333C29.2915 7.36111 29.5971 7.73611 29.7915 8.20833L33.3332 16.6667V30C33.3332 30.4722 33.1734 30.8681 32.854 31.1875C32.5346 31.5069 32.1387 31.6667 31.6665 31.6667H29.9998ZM34.9998 26.6667V12.3333L31.9582 5H14.4582L15.2082 3.20833C15.4026 2.73611 15.7082 2.36111 16.1248 2.08333C16.5415 1.80555 16.9998 1.66666 17.4998 1.66666H32.4998C32.9998 1.66666 33.4582 1.80555 33.8748 2.08333C34.2915 2.36111 34.5971 2.73611 34.7915 3.20833L38.3332 11.6667V25C38.3332 25.4722 38.1735 25.8681 37.854 26.1875C37.5346 26.5069 37.1387 26.6667 36.6665 26.6667H34.9998Z" fill="#504D4D"/>
</g>
</svg>
