<svg width="80" height="80" viewBox="0 0 80 80" fill="none" xmlns="http://www.w3.org/2000/svg">
<mask id="mask0_19_168" style="mask-type:alpha" maskUnits="userSpaceOnUse" x="0" y="0" width="80" height="80">
<rect width="79.5048" height="79.5048" fill="#D9D9D9"/>
</mask>
<g mask="url(#mask0_19_168)">
<mask id="mask1_19_168" style="mask-type:alpha" maskUnits="userSpaceOnUse" x="12" y="15" width="49" height="49">
<rect x="12" y="15" width="49" height="49" fill="#D9D9D9"/>
</mask>
<g mask="url(#mask1_19_168)">
<mask id="mask2_19_168" style="mask-type:alpha" maskUnits="userSpaceOnUse" x="12" y="11" width="56" height="56">
<rect x="12" y="11" width="56" height="56" fill="#D9D9D9"/>
</mask>
<g mask="url(#mask2_19_168)">
<path d="M16.6667 64.6667V60H63.3334V64.6667H16.6667ZM21.3334 57.6667V43.6667C20.0501 41.5667 19.0584 39.3403 18.3584 36.9875C17.6584 34.6348 17.3084 32.2334 17.3084 29.7834C17.3084 27.4112 17.6098 25.0778 18.2126 22.7834C18.8154 20.4889 19.5251 18.2334 20.3417 16.0167C20.6529 15.2 21.1584 14.5487 21.8584 14.0625C22.5584 13.5764 23.3362 13.3334 24.1917 13.3334C25.3973 13.3334 26.4279 13.7417 27.2834 14.5584C28.139 15.375 28.489 16.3473 28.3334 17.475L27.6917 22.7834C27.4584 24.65 27.6237 26.4195 28.1876 28.0917C28.7515 29.7639 29.5973 31.232 30.7251 32.4959C31.8529 33.7598 33.214 34.7709 34.8084 35.5292C36.4029 36.2875 38.1334 36.6667 40.0001 36.6667C42.3334 36.6667 44.6765 36.9098 47.0292 37.3959C49.382 37.882 51.4334 38.5723 53.1834 39.4667C54.9334 40.3612 56.2848 41.4987 57.2376 42.8792C58.1904 44.2598 58.6668 45.9612 58.6668 47.9834V57.6667H21.3334ZM26.0001 53H54.0001V47.9834C54.0001 47.05 53.7668 46.2237 53.3001 45.5042C52.8334 44.7848 52.1723 44.2112 51.3167 43.7834C49.7223 43.0056 47.8751 42.4028 45.7751 41.975C43.6751 41.5473 41.7501 41.3334 40.0001 41.3334C37.4334 41.3334 35.0515 40.8084 32.8542 39.7584C30.657 38.7084 28.7904 37.2987 27.2542 35.5292C25.7181 33.7598 24.5612 31.7181 23.7834 29.4042C23.0056 27.0903 22.7723 24.6889 23.0834 22.2C22.6945 23.3667 22.4126 24.6112 22.2376 25.9334C22.0626 27.2556 21.9751 28.5389 21.9751 29.7834C21.9751 32.0389 22.3737 34.207 23.1709 36.2875C23.9681 38.3681 24.9112 40.4 26.0001 42.3834V53ZM40.0001 34.3334C37.4334 34.3334 35.2362 33.4195 33.4084 31.5917C31.5806 29.7639 30.6667 27.5667 30.6667 25C30.6667 22.4334 31.5806 20.2362 33.4084 18.4084C35.2362 16.5806 37.4334 15.6667 40.0001 15.6667C42.5667 15.6667 44.764 16.5806 46.5917 18.4084C48.4195 20.2362 49.3334 22.4334 49.3334 25C49.3334 27.5667 48.4195 29.7639 46.5917 31.5917C44.764 33.4195 42.5667 34.3334 40.0001 34.3334ZM40.0001 29.6667C41.2834 29.6667 42.382 29.2098 43.2959 28.2959C44.2098 27.382 44.6667 26.2834 44.6667 25C44.6667 23.7167 44.2098 22.6181 43.2959 21.7042C42.382 20.7903 41.2834 20.3334 40.0001 20.3334C38.7167 20.3334 37.6181 20.7903 36.7043 21.7042C35.7904 22.6181 35.3334 23.7167 35.3334 25C35.3334 26.2834 35.7904 27.382 36.7043 28.2959C37.6181 29.2098 38.7167 29.6667 40.0001 29.6667ZM30.6667 57.6667V55.5084C30.6667 52.9028 31.5709 50.6667 33.3792 48.8C35.1876 46.9334 37.3945 46 40.0001 46H49.3334V50.6667H40.0001C38.6779 50.6667 37.5695 51.1431 36.6751 52.0959C35.7806 53.0487 35.3334 54.1862 35.3334 55.5084V57.6667H30.6667Z" fill="#0F0E46"/>
</g>
</g>
</g>
</svg>
